HIERARCHY
ROOT Hips
{
	OFFSET 0.000000 0.000000 0.000000
	CHANNELS 6 Xposition Yposition Zposition Xrotation Yrotation Zrotation
	JOINT LeftUpLeg_virtual
	{
		OFFSET 0.000000 0.000000 0.000000
		CHANNELS 3 Xrotation Yrotation Zrotation
		JOINT LeftUpLeg
		{
			OFFSET 13.026900 -6.336304 -1.092800
			CHANNELS 3 Xrotation Yrotation Zrotation
			JOINT LeftLeg
			{
				OFFSET 0.524474 -46.096886 9.782700
				CHANNELS 3 Xrotation Yrotation Zrotation
				JOINT LeftFoot
				{
					OFFSET -0.524474 -53.427422 -12.948200
					CHANNELS 3 Xrotation Yrotation Zrotation
					JOINT LeftToeBase
					{
						OFFSET 0.192200 -14.009700 16.364100
						CHANNELS 3 Xrotation Yrotation Zrotation
						JOINT LeftToe_End
						{
							OFFSET -1.784700 -0.561700 9.474800
							CHANNELS 3 Xrotation Yrotation Zrotation
							End Site
							{
								OFFSET 0 0 0
							}
						}
					}
				}
			}
		}
	}
	JOINT RightUpLeg_virtual
	{
		OFFSET 0.000000 0.000000 0.000000
		CHANNELS 3 Xrotation Yrotation Zrotation
		JOINT RightUpLeg
		{
			OFFSET -12.883000 -6.336304 -1.092800
			CHANNELS 3 Xrotation Yrotation Zrotation
			JOINT RightLeg
			{
				OFFSET -0.524587 -46.096825 9.782800
				CHANNELS 3 Xrotation Yrotation Zrotation
				JOINT RightFoot
				{
					OFFSET 0.524587 -53.427383 -12.948300
					CHANNELS 3 Xrotation Yrotation Zrotation
					JOINT RightToeBase
					{
						OFFSET -0.192200 -14.009700 16.364100
						CHANNELS 3 Xrotation Yrotation Zrotation
						JOINT RightToe_End
						{
							OFFSET 1.784700 -0.561700 9.474800
							CHANNELS 3 Xrotation Yrotation Zrotation
							End Site
							{
								OFFSET 0 0 0
							}
						}
					}
				}
			}
		}
	}
	JOINT Spine_virtual
	{
		OFFSET 0.000000 0.000000 0.000000
		CHANNELS 3 Xrotation Yrotation Zrotation
		JOINT Spine
		{
			OFFSET 0.072000 7.257294 -0.789700
			CHANNELS 3 Xrotation Yrotation Zrotation
			JOINT Spine1
			{
				OFFSET 0.000000 12.508769 -0.658067
				CHANNELS 3 Xrotation Yrotation Zrotation
				JOINT Spine1_split
				{
					OFFSET 0.000000 12.508769 -0.658067
					CHANNELS 3 Xrotation Yrotation Zrotation
					JOINT Spine2
					{
						OFFSET 0.000000 12.508769 -0.658067
						CHANNELS 3 Xrotation Yrotation Zrotation
						JOINT Neck_virtual
						{
							OFFSET 0.000000 0.000000 0.000000
							CHANNELS 3 Xrotation Yrotation Zrotation
							JOINT Neck
							{
								OFFSET 0.000000 14.033295 7.520400
								CHANNELS 3 Xrotation Yrotation Zrotation
								JOINT Head
								{
									OFFSET 0.000000 8.198502 5.703100
									CHANNELS 3 Xrotation Yrotation Zrotation
									JOINT HeadTop_End
									{
										OFFSET 0.000000 17.760803 13.332701
										CHANNELS 3 Xrotation Yrotation Zrotation
										End Site
										{
											OFFSET 0 0 0
										}
									}
								}
							}
						}
						JOINT LeftShoulder_virtual
						{
							OFFSET 0.000000 0.000000 0.000000
							CHANNELS 3 Xrotation Yrotation Zrotation
							JOINT LeftShoulder
							{
								OFFSET 6.292450 5.785301 -0.669000
								CHANNELS 3 Xrotation Yrotation Zrotation
								JOINT LeftShoulder_split
								{
									OFFSET 6.292450 5.785301 -0.669000
									CHANNELS 3 Xrotation Yrotation Zrotation
									JOINT LeftArm
									{
										OFFSET 13.907140 -6.093903 1.965100
										CHANNELS 3 Xrotation Yrotation Zrotation
										JOINT LeftForeArm
										{
											OFFSET 34.140198 0.000000 0.000000
											CHANNELS 3 Xrotation Yrotation Zrotation
											JOINT LeftHand
											{
												OFFSET 40.960209 0.000000 0.000000
												CHANNELS 3 Xrotation Yrotation Zrotation
												End Site
												{
													OFFSET 0 0 0
												}
											}
										}
									}
								}
							}
						}
						JOINT RightShoulder_virtual
						{
							OFFSET 0.000000 0.000000 0.000000
							CHANNELS 3 Xrotation Yrotation Zrotation
							JOINT RightShoulder
							{
								OFFSET -6.292450 5.785301 -0.669000
								CHANNELS 3 Xrotation Yrotation Zrotation
								JOINT RightShoulder_split
								{
									OFFSET -6.292450 5.785301 -0.669000
									CHANNELS 3 Xrotation Yrotation Zrotation
									JOINT RightArm
									{
										OFFSET -13.907140 -6.093903 1.965100
										CHANNELS 3 Xrotation Yrotation Zrotation
										JOINT RightForeArm
										{
											OFFSET -34.140198 0.000000 0.000000
											CHANNELS 3 Xrotation Yrotation Zrotation
											JOINT RightHand
											{
												OFFSET -40.960209 0.000000 0.000000
												CHANNELS 3 Xrotation Yrotation Zrotation
												End Site
												{
													OFFSET 0 0 0
												}
											}
										}
									}
								}
							}
						}
					}
				}
			}
		}
	}
}
MOTION
Frames: 8
Frame Time: 0.03333333
-25.647261 175.139267 35.780853 0.000000 0.000000 0.000000 7.709872 -19.485128 3.085909 -23.872233 8.558172 3.990900 29.172633 12.516422 5.400194 16.452304 -1.454741 2.387171 3.079892 0.404079 -1.575663 0.000000 0.000000 0.000000 7.494547 -17.667281 2.320955 -9.049363 -6.872770 -3.332641 13.714213 -16.874124 -0.693659 30.386064 -2.135022 -5.741277 7.494537 -0.933133 0.027840 0.000000 0.000000 0.000000 5.660521 -16.220429 2.064234 0.701284 4.053042 2.624799 -5.042851 1.218316 -1.753738 2.203143 -2.442244 0.256165 0.000000 0.000000 0.000000 -0.898426 1.311295 -2.446445 -28.505631 2.049930 -0.305404 -6.501255 3.233716 4.485194 0.000000 0.000000 0.000000 -3.754975 1.271483 -1.869550 4.423335 -3.390660 22.505873 4.788569 6.514312 0.934773 -56.165899 -24.749651 23.120709 -23.925675 -47.874083 9.547995 0.000000 0.000000 0.000000 -3.581550 0.806169 -1.496212 -4.751069 -11.993752 -26.394306 -1.498903 -2.112125 -2.057715 -84.924824 34.569503 33.603400 -31.373091 43.853660 -4.457806 0.000000 0.000000 0.000000 
-26.672716 171.355804 37.364319 0.000000 0.000000 0.000000 6.654868 -17.924411 2.091693 -26.309578 9.214849 4.932755 31.220361 13.233142 5.164892 21.259075 -1.949062 3.162088 3.777094 0.413535 -1.705559 0.000000 0.000000 0.000000 6.900579 -15.264208 1.496458 -11.235865 -8.201415 -5.284960 17.561055 -15.175226 0.254544 34.555792 -0.437328 -4.449147 7.385196 -0.274310 -0.082870 0.000000 0.000000 0.000000 4.546741 -14.290517 1.198824 0.693499 4.277387 3.017675 -5.347684 1.132502 -1.372469 2.561979 -2.712051 0.608543 0.000000 0.000000 0.000000 -1.627244 1.251487 -1.941734 -27.997736 1.308342 -1.092050 -7.094926 1.632689 4.707407 0.000000 0.000000 0.000000 -4.303949 1.120728 -1.452228 5.275815 -2.452793 24.748670 3.887242 4.956952 2.070053 -52.069490 -18.987272 18.966872 -20.364605 -51.964742 11.835003 0.000000 0.000000 0.000000 -4.213937 0.756569 -1.004097 -2.603747 -10.265215 -24.093583 -2.338739 -2.791316 -1.990211 -80.034818 39.136349 31.504319 -30.564461 39.625773 -0.514574 0.000000 0.000000 0.000000 
-27.561407 167.223099 39.060535 0.000000 0.000000 0.000000 5.488804 -16.298366 1.230877 -28.396621 9.533379 5.615525 32.980771 13.952693 4.973868 25.027895 -2.540570 4.624921 4.151792 0.362169 -1.593134 0.000000 0.000000 0.000000 6.237397 -12.591000 0.877209 -12.629277 -8.272504 -6.286553 20.137049 -13.496956 0.665073 38.142700 0.679283 -2.612421 6.853244 0.271792 0.068139 0.000000 0.000000 0.000000 3.236571 -12.608644 0.582664 0.629332 4.371642 3.272828 -5.716724 1.008711 -0.910040 2.459599 -2.744749 0.613651 0.000000 0.000000 0.000000 -2.631785 1.164112 -1.372202 -27.219723 1.052614 -2.120762 -7.086080 0.177827 4.725287 0.000000 0.000000 0.000000 -4.896687 0.952734 -0.956990 5.635269 -0.434631 27.522152 2.848773 3.043026 2.870986 -49.475469 -16.274850 13.840410 -19.308168 -51.814747 12.276130 0.000000 0.000000 0.000000 -5.138698 0.686270 -0.428974 -0.730734 -7.799314 -23.729590 -2.584123 -3.065104 -1.592684 -75.709300 41.038447 28.418377 -29.396257 34.075370 2.094523 0.000000 0.000000 0.000000 
-28.337530 163.690445 41.113762 0.000000 0.000000 0.000000 4.375641 -14.781996 0.674086 -29.381541 9.471818 5.648912 34.065729 14.890331 4.980305 26.743761 -2.768536 6.594327 4.785135 0.313844 -1.432693 0.000000 0.000000 0.000000 5.517897 -10.014530 0.551711 -12.873926 -7.503238 -6.134082 21.144966 -12.618101 0.684604 40.190578 0.390845 -1.498440 7.205301 0.619342 0.552977 0.000000 0.000000 0.000000 2.062654 -11.282427 0.346109 0.410120 4.343588 3.337889 -6.176511 0.879424 -0.461683 1.850391 -2.335856 0.301907 0.000000 0.000000 0.000000 -3.780126 1.076225 -0.856695 -26.058475 0.967093 -3.251546 -6.494687 -0.941552 4.563109 0.000000 0.000000 0.000000 -5.543884 0.814899 -0.506036 5.604846 1.919726 30.488783 2.071842 1.343056 3.273729 -49.017129 -16.605452 9.073403 -21.110180 -47.853839 10.590349 0.000000 0.000000 0.000000 -6.224726 0.649616 0.115273 0.756588 -5.224083 -25.333120 -2.416898 -2.669862 -0.922740 -73.788118 40.604976 26.000739 -28.024302 28.528964 3.426751 0.000000 0.000000 0.000000 
-28.906599 161.308243 43.358406 0.000000 0.000000 0.000000 3.414404 -13.401641 0.423696 -28.956102 9.082584 5.157852 34.190172 15.814234 5.189454 26.871848 -2.679271 7.999227 5.413774 0.316878 -1.397087 0.000000 0.000000 0.000000 4.598128 -7.946669 0.532500 -12.110017 -6.458603 -5.141934 20.961236 -12.628116 0.444215 40.777647 -1.256305 -1.164137 7.603195 0.752472 1.108509 0.000000 0.000000 0.000000 1.205471 -10.225074 0.471909 0.007594 4.186797 3.195945 -6.720296 0.762698 -0.138846 1.272198 -1.786052 -0.049429 0.000000 0.000000 0.000000 -4.929372 0.978456 -0.490716 -24.498377 0.794646 -4.310741 -5.375848 -1.658296 4.289960 0.000000 0.000000 0.000000 -6.213146 0.760336 -0.248260 5.399468 3.968965 33.174423 1.793274 0.056555 3.082267 -50.711607 -19.525341 5.085942 -24.115030 -41.712047 8.096450 0.000000 0.000000 0.000000 -7.200824 0.674578 0.497368 1.852852 -3.172069 -28.468059 -2.174969 -1.775511 0.176492 -74.399932 38.842015 24.844584 -26.664541 24.323511 3.829509 0.000000 0.000000 0.000000 
-29.376549 160.054581 45.838879 0.000000 0.000000 0.000000 2.464518 -12.016706 0.511109 -27.638219 8.544477 4.457214 33.511732 16.576120 5.473822 26.306682 -2.534080 8.324032 5.435756 0.392978 -1.468438 0.000000 0.000000 0.000000 3.472486 -6.501188 0.767044 -11.161213 -5.648484 -3.968082 20.643022 -13.173325 0.274531 41.117332 -3.300720 -0.959214 6.749058 0.709052 1.458164 0.000000 0.000000 0.000000 0.674495 -9.243994 0.892782 -0.491216 3.954161 2.920917 -7.317060 0.660275 0.019347 0.611866 -1.137895 -0.233094 0.000000 0.000000 0.000000 -5.977814 0.883918 -0.334576 -22.555221 0.482925 -5.131866 -3.813096 -1.990601 3.985446 0.000000 0.000000 0.000000 -6.883525 0.793312 -0.227223 5.244621 5.353568 35.170628 2.056415 -0.481061 2.336810 -53.608509 -23.548211 2.014982 -26.857644 -35.464934 5.894312 0.000000 0.000000 0.000000 -7.972532 0.773254 0.648036 2.524855 -1.946096 -32.310107 -1.760428 -0.434500 1.336471 -76.340505 36.580372 24.627791 -25.518640 22.439929 3.699464 0.000000 0.000000 0.000000 
-29.856949 159.653290 48.313660 0.000000 0.000000 0.000000 1.563605 -10.794150 0.862827 -26.047577 8.373959 3.906203 32.522014 17.213702 5.665628 25.801888 -2.329991 7.787987 5.079068 0.486387 -1.622900 0.000000 0.000000 0.000000 2.246181 -5.374590 1.204831 -10.451070 -5.334833 -3.219439 20.369822 -13.399620 0.261119 41.841756 -4.247729 -0.104524 4.743708 0.588105 1.438404 0.000000 0.000000 0.000000 0.330989 -8.308335 1.489713 -1.010942 3.673222 2.635714 -7.923047 0.564352 -0.003711 0.336799 -0.451619 -0.164504 0.000000 0.000000 0.000000 -6.852051 0.805161 -0.376994 -20.497756 0.057186 -5.677884 -2.076379 -1.894360 3.650279 0.000000 0.000000 0.000000 -7.533071 0.887744 -0.437820 5.334600 5.950914 36.263090 3.199220 -0.309573 1.306852 -56.571612 -27.404684 -0.282244 -28.707176 -30.868644 4.252287 0.000000 0.000000 0.000000 -8.463625 0.934822 0.569319 2.881604 -1.469322 -35.927628 -1.270509 0.970352 2.372587 -78.059165 34.415978 24.886132 -24.540655 22.849759 3.324525 0.000000 0.000000 0.000000 
-30.359205 159.594574 50.797234 0.000000 0.000000 0.000000 0.713710 -9.810670 1.340967 -24.696176 8.977391 3.667617 31.359004 17.846915 5.627075 25.382713 -2.066598 6.958675 4.616027 0.564355 -1.774319 0.000000 0.000000 0.000000 1.141650 -4.619108 1.649487 -10.089793 -5.654479 -2.981245 19.878632 -13.098989 0.320579 42.427270 -3.910607 1.061225 2.699831 0.490214 1.105116 0.000000 0.000000 0.000000 -0.029889 -7.506228 2.104942 -1.457839 3.350099 2.381570 -8.491504 0.476024 -0.141353 0.156585 -0.233370 0.118039 0.000000 0.000000 0.000000 -7.542249 0.726884 -0.533990 -18.466897 -0.329532 -5.956878 -0.402647 -1.415009 3.232764 0.000000 0.000000 0.000000 -8.119444 0.998928 -0.788963 5.717621 5.924746 36.486307 4.475271 0.436208 0.200085 -58.649468 -30.367721 -1.770043 -29.437101 -28.193945 3.244367 0.000000 0.000000 0.000000 -8.711263 1.097991 0.335407 2.998663 -1.571107 -38.701512 -0.660829 1.978222 3.054508 -78.522553 32.864388 25.081151 -23.753482 24.705426 2.817617 0.000000 0.000000 0.000000 
